<svg width="10" height="14" viewBox="0 0 10 14" fill="none" xmlns="http://www.w3.org/2000/svg">
<path d="M4.01878 11.3269L7.71623 6.84317H5.02605L5.5158 3.0017L2.19313 7.8124H4.51835L4.01878 11.3269ZM3.22352 8.93887H1.20087C0.954522 8.93887 0.775416 8.83103 0.66355 8.61537C0.551683 8.3997 0.567261 8.18688 0.710283 7.97692L5.83502 0.557748C5.90908 0.455192 6.01079 0.381475 6.14013 0.336597C6.26948 0.291731 6.39512 0.295792 6.51705 0.348781C6.63898 0.398925 6.73713 0.482742 6.81148 0.60023C6.88584 0.717731 6.91775 0.84032 6.90722 0.967998L6.30508 5.7167H8.80593C9.07071 5.7167 9.25884 5.83529 9.37032 6.07247C9.48179 6.30963 9.45264 6.5295 9.28285 6.73207L3.6705 13.5072C3.57977 13.6082 3.4724 13.6753 3.3484 13.7086C3.2244 13.7419 3.10072 13.7262 2.97735 13.6617C2.85115 13.6 2.76027 13.5148 2.70472 13.406C2.64916 13.2973 2.62893 13.1755 2.64403 13.0406L3.22352 8.93887Z" fill="#77818C"/>
</svg>
