<?xml version="1.0" encoding="UTF-8"?>
<svg xmlns="http://www.w3.org/2000/svg" xmlns:xlink="http://www.w3.org/1999/xlink" width="20px" height="20px" viewBox="0 0 20 20" version="1.1">
<g id="surface1">
<path style=" stroke:none;fill-rule:nonzero;fill:rgb(12.156863%,53.72549%,100%);fill-opacity:1;" d="M 4.917969 3.382812 L 0.332031 6.433594 L 0.332031 13.566406 L 4.933594 16.617188 C 10.484375 20.300781 9.515625 20.300781 15.066406 16.617188 L 19.667969 13.566406 L 19.667969 6.433594 L 15.066406 3.382812 C 9.515625 -0.300781 10.464844 -0.300781 4.917969 3.382812 Z M 9.332031 4.484375 C 9.332031 6.148438 9.234375 6.367188 8.25 7.101562 C 5.601562 9.082031 5.648438 9.066406 4.082031 8.066406 C 2.300781 6.933594 2.167969 7.183594 5.75 4.765625 C 9.515625 2.25 9.332031 2.265625 9.332031 4.484375 Z M 14.101562 4.714844 C 15.785156 5.851562 17.234375 6.816406 17.316406 6.882812 C 17.464844 7.015625 16.632812 7.667969 15.300781 8.464844 C 13.648438 9.433594 10.898438 7.082031 10.75 4.582031 C 10.617188 2.25 10.382812 2.234375 14.101562 4.714844 Z M 11.5 8.964844 L 13.035156 9.933594 L 11.535156 10.964844 L 10.035156 12 L 8.5 11.035156 L 6.964844 10.066406 L 8.398438 9.050781 C 9.183594 8.484375 9.867188 8.015625 9.898438 8.015625 C 9.949219 8 10.667969 8.433594 11.5 8.964844 Z M 3.117188 9.300781 L 4.050781 9.917969 L 3.066406 10.617188 C 1.734375 11.566406 1.667969 11.550781 1.667969 10 C 1.667969 8.484375 1.800781 8.433594 3.117188 9.300781 Z M 18.332031 10 C 18.332031 11.550781 18.265625 11.566406 16.933594 10.617188 L 15.949219 9.917969 L 16.882812 9.300781 C 18.199219 8.433594 18.332031 8.484375 18.332031 10 Z M 8.25 12.898438 C 9.265625 13.648438 10.035156 17.699219 9.082031 17.285156 C 8.449219 17 2.699219 13.148438 2.683594 13 C 2.683594 12.898438 3.300781 12.433594 4.082031 11.933594 C 5.648438 10.933594 5.601562 10.917969 8.25 12.898438 Z M 16.082031 11.949219 C 16.765625 12.382812 17.332031 12.832031 17.316406 12.949219 C 17.300781 13.132812 11.632812 16.964844 10.882812 17.285156 C 10.734375 17.351562 10.667969 16.535156 10.734375 15.449219 C 10.867188 13.515625 10.882812 13.484375 12.667969 12.25 C 13.648438 11.550781 14.550781 11.035156 14.648438 11.082031 C 14.75 11.132812 15.398438 11.535156 16.082031 11.949219 Z M 16.082031 11.949219 "/>
</g>
</svg>
