<svg width="22" height="22" viewBox="0 0 22 22" fill="none" xmlns="http://www.w3.org/2000/svg">
<path d="M11.3018 0.61175C11.2847 0.611908 11.2676 0.612485 11.2505 0.613482C11.1779 0.618629 11.1064 0.63313 11.0379 0.656596C10.986 0.674509 10.9361 0.697424 10.889 0.72499L2.23388 5.52417C2.11208 5.59173 2.01094 5.6889 1.94063 5.8059C1.87032 5.9229 1.8333 6.05561 1.83331 6.19071C1.83331 6.1959 1.83367 6.20179 1.83385 6.20733C1.83367 6.21339 1.83385 6.21945 1.83385 6.22568V15.8101C1.83383 15.9494 1.87313 16.086 1.94758 16.2055C2.02202 16.325 2.12882 16.4228 2.2566 16.4886L10.9082 21.2862C10.9244 21.295 10.9407 21.3033 10.9569 21.3111V21.3128C10.9813 21.3241 11.0062 21.3341 11.0317 21.3429C11.0317 21.3438 11.0407 21.3455 11.0425 21.3464C11.0678 21.355 11.093 21.3617 11.1191 21.3676C11.1281 21.3685 11.129 21.3702 11.1336 21.3711C11.1588 21.3763 11.1849 21.3808 11.2111 21.3837C11.2111 21.3841 11.2201 21.3845 11.2237 21.3846C11.2507 21.3872 11.2787 21.3889 11.3057 21.3889C11.3328 21.3889 11.3607 21.3872 11.3877 21.3846C11.3877 21.3841 11.3968 21.3838 11.4004 21.3837C11.4265 21.3811 11.4523 21.3769 11.4779 21.3711C11.4869 21.3702 11.4878 21.3693 11.4923 21.3676C11.5182 21.3617 11.5437 21.3546 11.5689 21.3464C11.5689 21.3455 11.5779 21.3438 11.5797 21.3429C11.6052 21.3341 11.6302 21.3241 11.6545 21.3129V21.3111C11.671 21.3033 11.6872 21.295 11.7032 21.2863L20.3551 16.4887C20.4829 16.4229 20.5896 16.325 20.6641 16.2055C20.7385 16.0861 20.7778 15.9494 20.7778 15.8102V6.21988C20.7778 6.21209 20.7772 6.20499 20.777 6.19755H20.7773V6.19062C20.7773 6.07943 20.7521 5.96957 20.7036 5.86862C20.6551 5.76766 20.5844 5.678 20.4964 5.60581C20.4873 5.59888 20.4792 5.59178 20.4702 5.58495C20.4702 5.58321 20.4612 5.58062 20.4612 5.57889C20.4305 5.55635 20.3981 5.53595 20.3644 5.51785L11.7141 0.720748C11.5877 0.64783 11.4428 0.609899 11.2954 0.611144L11.3018 0.61175ZM11.3109 2.56167C11.3758 2.56167 11.4409 2.57786 11.4992 2.61015L17.3911 5.87748C17.6425 6.01687 17.6425 6.36516 17.3911 6.50454L11.4992 9.77187C11.4418 9.80365 11.3768 9.82038 11.3107 9.82038C11.2445 9.82038 11.1795 9.80365 11.1222 9.77187L5.2303 6.50454C4.979 6.36524 4.97891 6.01687 5.2303 5.87748L11.1224 2.61015C11.1797 2.57844 11.2446 2.56172 11.3108 2.56167H11.3109ZM4.0277 8.15266C4.09573 8.15172 4.16274 8.16863 4.22149 8.20158L10.102 11.4625C10.1592 11.4942 10.2067 11.5398 10.2397 11.5947C10.2727 11.6495 10.2901 11.7118 10.2901 11.7752V18.2965C10.2901 18.5746 9.97665 18.7485 9.7258 18.6093L3.84553 15.3484C3.78836 15.3167 3.74089 15.2711 3.70789 15.2162C3.67488 15.1613 3.65751 15.099 3.6575 15.0356V8.51429C3.6575 8.30581 3.83372 8.15587 4.0277 8.15266ZM18.5937 8.15266C18.7875 8.15613 18.9639 8.30573 18.9639 8.51429V15.0355C18.9639 15.1645 18.8918 15.2838 18.7758 15.3484L12.8954 18.6093C12.6448 18.7484 12.3313 18.5746 12.3313 18.2964V11.7752C12.3313 11.6462 12.4034 11.527 12.5193 11.4624L18.3997 8.20149C18.4585 8.16853 18.5256 8.15162 18.5936 8.15258L18.5937 8.15266Z" fill="#2188FF"/>
</svg>
